# xmcd CD database file
#
# Track frame offsets:
#	150
#	13305
#	25379
#	38216
#	50083
#	61766
#	73937
#	87455
#	98846
#	110592
#	123979
#	136614
#	148542
#	161269
#	170702
#	182044
#	192524
#	206016
#	216367
#	229289
#
# Disc length: 3271 seconds
#
# Revision: 0
# Processed by: cddbd v1.4PL0 Copyright (c) Steve Scherf et al.
# Submitted via: CDex 1.50Beta7
#
DISCID=2e0cc514
DTITLE=Bob Wills and his Texas Playboys - Famous Country Music Makers (Castle)
DYEAR=1900
DGENRE=Country
TTITLE0=Right or Wrong
TTITLE1=Time Changes Everything
TTITLE2=Corrine, Corrine
TTITLE3=Big Beaver
TTITLE4=New San Antonio Rose
TTITLE5=Take Me Back To Tulsa
TTITLE6=Cherokee Maiden
TTITLE7=Home in San Antone
TTITLE8=Miss Molly
TTITLE9=My Confession
TTITLE10=Texas Playboy Rag
TTITLE11=Roly Poly
TTITLE12=Stay A Little Longer
TTITLE13=My Window Faces the South
TTITLE14=Fat Boy Rag
TTITLE15=Three Guitar Special
TTITLE16=Deep Water
TTITLE17=Bubbles in my Beer
TTITLE18=Blues for Dixie
TTITLE19=South
EXTD=
EXTT0=
EXTT1=
EXTT2=
EXTT3=
EXTT4=
EXTT5=
EXTT6=
EXTT7=
EXTT8=
EXTT9=
EXTT10=
EXTT11=
EXTT12=
EXTT13=
EXTT14=
EXTT15=
EXTT16=
EXTT17=
EXTT18=
EXTT19=
PLAYORDER=
